<svg width="20" height="20" viewBox="0 0 20 20" fill="none" xmlns="http://www.w3.org/2000/svg">
<path d="M5.75001 17.6875C5.59723 17.5208 5.51737 17.3264 5.51043 17.1042C5.50348 16.8819 5.58334 16.6875 5.75001 16.5208L12.3125 9.95832L5.75001 3.39582C5.59723 3.24304 5.51737 3.05207 5.51043 2.82291C5.50348 2.59374 5.58334 2.39582 5.75001 2.22916C5.90279 2.06249 6.09376 1.97568 6.32293 1.96874C6.55209 1.96179 6.75001 2.04166 6.91668 2.20832L14.2292 9.52082C14.2986 9.59027 14.3472 9.65971 14.375 9.72916C14.4028 9.7986 14.4167 9.87499 14.4167 9.95832C14.4167 10.0417 14.4028 10.118 14.375 10.1875C14.3472 10.2569 14.2986 10.3264 14.2292 10.3958L6.91668 17.7083C6.7639 17.8611 6.57293 17.9375 6.34376 17.9375C6.11459 17.9375 5.91668 17.8542 5.75001 17.6875Z" fill="white"/>
</svg>
