<svg width="20" height="20" viewBox="0 0 20 20" fill="none" xmlns="http://www.w3.org/2000/svg">
<path d="M14.25 2.31245C14.4028 2.47912 14.4826 2.67356 14.4896 2.89578C14.4965 3.11801 14.4167 3.31245 14.25 3.47912L7.68749 10.0416L14.25 16.6041C14.4028 16.7569 14.4826 16.9479 14.4896 17.177C14.4965 17.4062 14.4167 17.6041 14.25 17.7708C14.0972 17.9374 13.9062 18.0243 13.6771 18.0312C13.4479 18.0381 13.25 17.9583 13.0833 17.7916L5.77083 10.4791C5.70138 10.4097 5.65277 10.3402 5.62499 10.2708C5.59721 10.2013 5.58333 10.1249 5.58333 10.0416C5.58333 9.95828 5.59721 9.88189 5.62499 9.81245C5.65277 9.743 5.70138 9.67356 5.77083 9.60412L13.0833 2.29162C13.2361 2.13884 13.4271 2.06245 13.6562 2.06245C13.8854 2.06245 14.0833 2.14578 14.25 2.31245Z" fill="white"/>
</svg>
