<svg width="18" height="18" viewBox="0 0 18 18" fill="none" xmlns="http://www.w3.org/2000/svg">
<path d="M8.99438 18C8.71955 18 8.49107 17.9076 8.30893 17.7228C8.12679 17.5379 8.03572 17.3089 8.03572 17.0357V9.96429H0.964286C0.691071 9.96429 0.462054 9.87134 0.277232 9.68545C0.0924107 9.49953 0 9.26918 0 8.99438C0 8.71955 0.0924107 8.49107 0.277232 8.30893C0.462054 8.12679 0.691071 8.03572 0.964286 8.03572H8.03572V0.964286C8.03572 0.691071 8.12866 0.462054 8.31455 0.277232C8.50047 0.0924107 8.73083 0 9.00562 0C9.28045 0 9.50893 0.0924107 9.69107 0.277232C9.87321 0.462054 9.96429 0.691071 9.96429 0.964286V8.03572H17.0357C17.3089 8.03572 17.5379 8.12866 17.7228 8.31455C17.9076 8.50047 18 8.73083 18 9.00562C18 9.28045 17.9076 9.50893 17.7228 9.69107C17.5379 9.87321 17.3089 9.96429 17.0357 9.96429H9.96429V17.0357C9.96429 17.3089 9.87134 17.5379 9.68545 17.7228C9.49953 17.9076 9.26918 18 8.99438 18Z" fill="#D13C3C"/>
</svg>
